<svg id="Layer_1" enable-background="new 0 0 512 512" height="512" viewBox="0 0 512 512" width="512" xmlns="http://www.w3.org/2000/svg"><g><path d="m394.41 226c4.143 0 7.5-3.357 7.5-7.5s-3.357-7.5-7.5-7.5h-38c-4.143 0-7.5 3.357-7.5 7.5v75c0 4.143 3.357 7.5 7.5 7.5h38c4.143 0 7.5-3.357 7.5-7.5s-3.357-7.5-7.5-7.5h-30.5v-30h15.5c4.143 0 7.5-3.357 7.5-7.5s-3.357-7.5-7.5-7.5h-15.5v-15z"/><path d="m326.5 211c-4.143 0-7.5 3.357-7.5 7.5v37.5h-35v-37.5c0-4.143-3.357-7.5-7.5-7.5s-7.5 3.357-7.5 7.5v75c0 4.143 3.357 7.5 7.5 7.5s7.5-3.357 7.5-7.5v-22.5h35v22.5c0 4.143 3.357 7.5 7.5 7.5s7.5-3.357 7.5-7.5v-75c0-4.143-3.358-7.5-7.5-7.5z"/><path d="m229.58 248.82c-5.283-1.598-10.273-3.105-11.918-5.948-.982-1.699-1.502-3.644-1.502-5.622 0-6.203 5.047-11.25 11.25-11.25 3.569 0 6.852 1.643 9.006 4.507 2.489 3.312 7.192 3.979 10.501 1.487 3.312-2.489 3.977-7.19 1.487-10.501-4.939-6.57-12.788-10.493-20.994-10.493-14.475 0-26.25 11.775-26.25 26.25 0 4.61 1.216 9.15 3.518 13.132 4.614 7.976 13.087 10.537 20.562 12.796 8.008 2.422 13.421 3.857 13.421 11.572 0 6.203-5.047 11.25-11.25 11.25-4.004 0-7.738-2.157-9.748-5.629-2.074-3.586-6.664-4.81-10.248-2.734-3.585 2.074-4.81 6.663-2.734 10.248 4.682 8.09 13.392 13.115 22.73 13.115 14.475 0 26.25-11.775 26.25-26.25 0-4.615-1.217-9.157-3.519-13.134-4.615-7.975-13.087-10.537-20.562-12.796z"/><path d="m148.41 211c-24.813 0-45 20.187-45 45s20.187 45 45 45 45-20.187 45-45-20.187-45-45-45zm0 75c-16.542 0-30-13.458-30-30s13.458-30 30-30 30 13.458 30 30-13.458 30-30 30z"/><path d="m99.852 213.246c-2.902-2.956-7.65-2.997-10.606-.099l-32.246 31.65v-26.297c0-4.143-3.357-7.5-7.5-7.5s-7.5 3.357-7.5 7.5v75c0 4.143 3.357 7.5 7.5 7.5s7.5-3.357 7.5-7.5v-27.685l6.797-6.671 24.379 38.249c2.228 3.497 6.869 4.517 10.355 2.293 3.493-2.226 4.52-6.862 2.293-10.355l-26.085-40.925 25.015-24.552c2.956-2.903 3-7.652.098-10.608z"/><path d="m470 241c0-16.542-13.407-30-29.887-30h-17.613c-4.143 0-7.5 3.357-7.5 7.5v75c0 4.143 3.357 7.5 7.5 7.5s7.5-3.357 7.5-7.5v-22.5h6.352l20.137 26.985c1.473 1.974 3.729 3.015 6.017 3.015 1.56 0 3.134-.484 4.479-1.489 3.32-2.478 4.003-7.177 1.525-10.496l-15.603-20.909c10.096-4.821 17.093-15.158 17.093-27.106zm-29.887 15h-10.113v-30h10.113c8.209 0 14.887 6.729 14.887 15s-6.678 15-14.887 15z"/><path d="m512 256c0-26.636-13.968-50.056-34.953-63.365 27.528-47.707-7.053-102.385-57.801-102.385h-72.169l-32.621-56.5c-12.201-21.133-34.054-33.75-58.456-33.75-24.401 0-46.255 12.617-58.457 33.75l-32.62 56.5h-26.67c-4.143 0-7.5 3.357-7.5 7.5s3.357 7.5 7.5 7.5h18.01l-25.986 45.009h-37.523c-5.769 0-9.376 6.259-6.495 11.25l11.252 19.491h-21.505c-9.675 0-18.941 1.835-27.483 5.138-23.05-39.936 5.924-80.888 44.231-80.888h15.499c4.143 0 7.5-3.357 7.5-7.5s-3.357-7.5-7.5-7.5h-15.499c-50.353 0-85.631 54.188-57.644 102.656-20.792 13.204-34.767 36.099-35.103 62.1-.349 26.904 13.366 50.717 34.922 64.401-27.654 47.902 7.316 102.343 57.825 102.343h72.169l32.621 56.5c12.201 21.133 34.07 33.75 58.499 33.75 24.375 0 46.212-12.617 58.414-33.749l7.354-12.737c2.071-3.587.842-8.174-2.745-10.245-3.59-2.07-8.175-.844-10.245 2.745-4.063 7.037-6.725 11.647-7.354 12.736-9.49 16.437-26.471 26.25-45.423 26.25-19.006 0-36.019-9.813-45.509-26.25l-28.291-49h51.935l15.24 26.401c1.339 2.321 3.989 3.751 6.669 3.751s5.156-1.43 6.495-3.75l67.626-117.152h51.941l-58.296 100.975c-2.071 3.587-.842 8.174 2.745 10.245 3.592 2.072 8.177.839 10.245-2.745l10.233-17.725h72.168c50.373 0 85.538-54.331 57.801-102.384 20.985-13.31 34.954-36.73 34.954-63.366zm-92.754-150.75c38.708 0 66.98 41.48 44.371 80.646-8.278-3.153-17.246-4.896-26.617-4.896h-22.511l11.252-19.491c2.884-4.997-.733-11.25-6.495-11.25h-202.367c8.495-14.713 17.91-31.021 25.986-45.009zm-12.989 60.009-7.937 13.748-7.937-13.748zm-24.106 15.741h-51.961l-9.088-15.741h51.961zm-69.282 0h-113.738c2.516-4.358 5.619-9.731 9.088-15.741h95.562zm-61.344-90.75c1.635-2.831 3.138-5.435 4.475-7.75l4.475 7.75zm-40.991-49c9.49-16.437 26.486-26.25 45.466-26.25s35.976 9.813 45.466 26.25l28.291 49h-51.962l-15.3-26.5c-1.34-2.32-3.815-3.75-6.495-3.75s-5.155 1.43-6.495 3.75c-3.568 6.18-55.925 96.864-67.694 117.25h-51.962c3.195-5.535 75.683-131.088 80.685-139.75zm-88.917 124.009-7.938 13.748-7.936-13.748zm134.383 264.292-4.503-7.801h9.006zm13.162-22.801h-176.408c-38.473 0-67.154-41.193-44.39-80.613 15.563 5.901 25.756 4.863 49.153 4.863l-11.259 19.5c-2.885 4.997.734 11.25 6.495 11.25h202.385zm-163.418-60 7.939-13.75 7.939 13.75zm24.104-15.75h51.942l9.092 15.75h-51.94zm173.95 15.75h-95.595l-9.093-15.75h113.779zm115.448 60h-63.508l25.98-45h37.528c5.77 0 9.376-6.261 6.495-11.25l-11.259-19.5h22.518c9.372 0 18.339-1.743 26.617-4.896 22.743 39.398-5.835 80.646-44.371 80.646zm-28.868-60 7.938-13.75 7.939 13.75zm46.622-30.75h-362c-33.408 0-60.428-27.235-59.995-60.8.423-32.643 27.788-59.2 61.001-59.2h360.994c33.084 0 60 26.916 60 60s-26.916 60-60 60z"/></g></svg>