<svg width="36" height="46" viewBox="0 0 36 46" fill="none" xmlns="http://www.w3.org/2000/svg">
<mask id="path-1-outside-1_1232_82739" maskUnits="userSpaceOnUse" x="0" y="0" width="36" height="46" fill="black">
<rect fill="white" width="36" height="46"/>
<path fill-rule="evenodd" clip-rule="evenodd" d="M34.3333 17.5625C34.3333 23.0434 31.6543 27.9026 27.5265 30.9172C24.391 33.2651 19.9718 36.9685 18.9532 42.9286C18.8446 43.5643 18.3115 44.0575 17.6667 44.0575C17.0218 44.0575 16.4887 43.5643 16.3801 42.9286C15.3615 36.9684 10.9422 33.265 7.80672 30.9171C3.67901 27.9025 1 23.0434 1 17.5625C1 8.41528 8.46192 1 17.6667 1C26.8714 1 34.3333 8.41528 34.3333 17.5625Z"/>
</mask>
<path fill-rule="evenodd" clip-rule="evenodd" d="M34.3333 17.5625C34.3333 23.0434 31.6543 27.9026 27.5265 30.9172C24.391 33.2651 19.9718 36.9685 18.9532 42.9286C18.8446 43.5643 18.3115 44.0575 17.6667 44.0575C17.0218 44.0575 16.4887 43.5643 16.3801 42.9286C15.3615 36.9684 10.9422 33.265 7.80672 30.9171C3.67901 27.9025 1 23.0434 1 17.5625C1 8.41528 8.46192 1 17.6667 1C26.8714 1 34.3333 8.41528 34.3333 17.5625Z" fill="#191919"/>
<path d="M27.5265 30.9172L26.9367 30.1096L26.9271 30.1168L27.5265 30.9172ZM18.9532 42.9286L19.9389 43.0971L19.9389 43.0971L18.9532 42.9286ZM16.3801 42.9286L15.3944 43.0971L15.3944 43.0971L16.3801 42.9286ZM7.80672 30.9171L8.40615 30.1166L8.39651 30.1096L7.80672 30.9171ZM28.1163 31.7248C32.4895 28.5309 35.3333 23.3777 35.3333 17.5625H33.3333C33.3333 22.7092 30.8191 27.2742 26.9367 30.1097L28.1163 31.7248ZM19.9389 43.0971C20.8862 37.554 25.0034 34.0558 28.1259 31.7177L26.9271 30.1168C23.7786 32.4744 19.0573 36.383 17.9675 42.7602L19.9389 43.0971ZM17.6667 45.0575C18.8457 45.0575 19.7564 44.1654 19.9389 43.0971L17.9675 42.7602C17.9328 42.9632 17.7774 43.0575 17.6667 43.0575V45.0575ZM15.3944 43.0971C15.577 44.1654 16.4877 45.0575 17.6667 45.0575V43.0575C17.5559 43.0575 17.4005 42.9632 17.3658 42.7602L15.3944 43.0971ZM7.20733 31.7176C10.3298 34.0557 14.4471 37.5539 15.3944 43.0971L17.3658 42.7602C16.276 36.3829 11.5546 32.4743 8.40611 30.1167L7.20733 31.7176ZM0 17.5625C0 23.3776 2.8438 28.5308 7.21692 31.7247L8.39651 30.1096C4.51421 27.2741 2 22.7091 2 17.5625H0ZM17.6667 0C7.91556 0 0 7.8571 0 17.5625H2C2 8.97347 9.00829 2 17.6667 2V0ZM35.3333 17.5625C35.3333 7.8571 27.4178 0 17.6667 0V2C26.325 2 33.3333 8.97347 33.3333 17.5625H35.3333Z" fill="url(#paint0_linear_1232_82739)" mask="url(#path-1-outside-1_1232_82739)"/>
<defs>
<linearGradient id="paint0_linear_1232_82739" x1="17.6667" y1="1" x2="17.6667" y2="44.0575" gradientUnits="userSpaceOnUse">
<stop stop-color="white"/>
<stop offset="1" stop-color="white" stop-opacity="0.35"/>
</linearGradient>
</defs>
</svg>
