<svg width="40" height="32" viewBox="0 0 40 32" fill="none" xmlns="http://www.w3.org/2000/svg">
<path d="M34.496 23.67L27.908 18.17C27.3432 17.7233 26.6292 17.4297 25.8601 17.3279C25.091 17.2261 24.303 17.321 23.6 17.6L21.56 15.9C22.8806 14.5038 23.5992 12.7778 23.6 11C23.6 9.41775 23.0369 7.87103 21.9821 6.55544C20.9272 5.23985 19.4279 4.21447 17.6737 3.60897C15.9196 3.00347 13.9893 2.84504 12.1271 3.15372C10.2649 3.4624 8.55433 4.22433 7.21174 5.34315C5.86916 6.46197 4.95485 7.88743 4.58443 9.43928C4.21401 10.9911 4.40412 12.5997 5.13072 14.0615C5.85733 15.5233 7.08778 16.7727 8.66649 17.6518C10.2452 18.5308 12.1013 19 14 19C16.132 19.0022 18.2029 18.407 19.88 17.31L21.908 19C21.5609 19.5843 21.4414 20.2443 21.5662 20.8879C21.6909 21.5315 22.0538 22.1265 22.604 22.59L29.204 28.08C29.9132 28.6337 30.853 28.9359 31.8247 28.9227C32.7964 28.9094 33.7239 28.5819 34.411 28.0092C35.0982 27.4366 35.4913 26.6637 35.5071 25.8539C35.523 25.0442 35.1604 24.261 34.496 23.67V23.67ZM6.79997 11C6.79997 9.81332 7.22224 8.65328 8.01339 7.66658C8.80453 6.67989 9.92902 5.91085 11.2446 5.45673C12.5603 5.0026 14.008 4.88378 15.4046 5.11529C16.8013 5.3468 18.0842 5.91825 19.0911 6.75736C20.0981 7.59648 20.7838 8.66558 21.0616 9.82946C21.3394 10.9933 21.1969 12.1997 20.6519 13.2961C20.1069 14.3925 19.1841 15.3295 18.0001 15.9888C16.816 16.6481 15.424 17 14 17C12.0904 17 10.2591 16.3679 8.9088 15.2426C7.55854 14.1174 6.79997 12.5913 6.79997 11ZM32.804 26.67C32.679 26.7749 32.5304 26.8582 32.3667 26.915C32.2029 26.9718 32.0273 27.0011 31.85 27.0011C31.6726 27.0011 31.497 26.9718 31.3333 26.915C31.1695 26.8582 31.0209 26.7749 30.896 26.67L24.296 21.17C24.0475 20.9572 23.9084 20.672 23.9084 20.375C23.9084 20.0781 24.0475 19.7928 24.296 19.58C24.5542 19.3775 24.8954 19.2647 25.25 19.2647C25.6045 19.2647 25.9458 19.3775 26.204 19.58L32.804 25.08C32.9299 25.1841 33.0298 25.308 33.098 25.4444C33.1662 25.5809 33.2013 25.7272 33.2013 25.875C33.2013 26.0228 33.1662 26.1692 33.098 26.3056C33.0298 26.442 32.9299 26.5659 32.804 26.67Z" fill="white"/>
</svg>
